%TF.GenerationSoftware,KiCad,Pcbnew,10.0.3*%
%TF.CreationDate,2026-06-14T14:45:45-05:00*%
%TF.ProjectId,Sax32,53617833-322e-46b6-9963-61645f706362,rev?*%
%TF.SameCoordinates,Original*%
%TF.FileFunction,Copper,L1,Top*%
%TF.FilePolarity,Positive*%
%FSLAX46Y46*%
G04 Gerber Fmt 4.6, Leading zero omitted, Abs format (unit mm)*
G04 Created by KiCad (PCBNEW 10.0.3) date 2026-06-14 14:45:45*
%MOMM*%
%LPD*%
G01*
G04 APERTURE LIST*
G04 Aperture macros list*
%AMRoundRect*
0 Rectangle with rounded corners*
0 $1 Rounding radius*
0 $2 $3 $4 $5 $6 $7 $8 $9 X,Y pos of 4 corners*
0 Add a 4 corners polygon primitive as box body*
4,1,4,$2,$3,$4,$5,$6,$7,$8,$9,$2,$3,0*
0 Add four circle primitives for the rounded corners*
1,1,$1+$1,$2,$3*
1,1,$1+$1,$4,$5*
1,1,$1+$1,$6,$7*
1,1,$1+$1,$8,$9*
0 Add four rect primitives between the rounded corners*
20,1,$1+$1,$2,$3,$4,$5,0*
20,1,$1+$1,$4,$5,$6,$7,0*
20,1,$1+$1,$6,$7,$8,$9,0*
20,1,$1+$1,$8,$9,$2,$3,0*%
G04 Aperture macros list end*
%TA.AperFunction,SMDPad,CuDef*%
%ADD10RoundRect,0.225000X-0.225000X-0.250000X0.225000X-0.250000X0.225000X0.250000X-0.225000X0.250000X0*%
%TD*%
%TA.AperFunction,SMDPad,CuDef*%
%ADD11RoundRect,0.200000X0.800000X-0.200000X0.800000X0.200000X-0.800000X0.200000X-0.800000X-0.200000X0*%
%TD*%
%TA.AperFunction,SMDPad,CuDef*%
%ADD12RoundRect,0.218750X0.256250X-0.218750X0.256250X0.218750X-0.256250X0.218750X-0.256250X-0.218750X0*%
%TD*%
%TA.AperFunction,SMDPad,CuDef*%
%ADD13R,1.500000X0.900000*%
%TD*%
%TA.AperFunction,SMDPad,CuDef*%
%ADD14R,0.900000X1.500000*%
%TD*%
%TA.AperFunction,SMDPad,CuDef*%
%ADD15R,0.900000X0.900000*%
%TD*%
%TA.AperFunction,ComponentPad*%
%ADD16R,1.700000X1.700000*%
%TD*%
%TA.AperFunction,ComponentPad*%
%ADD17C,1.700000*%
%TD*%
%TA.AperFunction,SMDPad,CuDef*%
%ADD18RoundRect,0.200000X-0.275000X0.200000X-0.275000X-0.200000X0.275000X-0.200000X0.275000X0.200000X0*%
%TD*%
%TA.AperFunction,SMDPad,CuDef*%
%ADD19RoundRect,0.375000X-0.625000X-0.375000X0.625000X-0.375000X0.625000X0.375000X-0.625000X0.375000X0*%
%TD*%
%TA.AperFunction,SMDPad,CuDef*%
%ADD20RoundRect,0.500000X-0.500000X-1.400000X0.500000X-1.400000X0.500000X1.400000X-0.500000X1.400000X0*%
%TD*%
%TA.AperFunction,SMDPad,CuDef*%
%ADD21R,0.600000X1.450000*%
%TD*%
%TA.AperFunction,SMDPad,CuDef*%
%ADD22R,0.300000X1.450000*%
%TD*%
%TA.AperFunction,HeatsinkPad*%
%ADD23O,1.000000X2.100000*%
%TD*%
%TA.AperFunction,HeatsinkPad*%
%ADD24O,1.000000X1.600000*%
%TD*%
%TA.AperFunction,SMDPad,CuDef*%
%ADD25RoundRect,0.200000X0.200000X0.275000X-0.200000X0.275000X-0.200000X-0.275000X0.200000X-0.275000X0*%
%TD*%
%TA.AperFunction,ViaPad*%
%ADD26C,0.600000*%
%TD*%
%TA.AperFunction,Conductor*%
%ADD27C,0.400000*%
%TD*%
%TA.AperFunction,Conductor*%
%ADD28C,0.200000*%
%TD*%
G04 APERTURE END LIST*
D10*
%TO.P,C1,1*%
%TO.N,+5V*%
X135987200Y-69545600D03*
%TO.P,C1,2*%
%TO.N,GND*%
X137537200Y-69545600D03*
%TD*%
D11*
%TO.P,RST,1,A_1*%
%TO.N,GND*%
X150922400Y-83532800D03*
%TO.P,RST,2,B_2*%
%TO.N,/EN*%
X150922400Y-79332800D03*
%TD*%
%TO.P,BOOT,1,A_1*%
%TO.N,GND*%
X135174400Y-83583600D03*
%TO.P,BOOT,2,B_2*%
%TO.N,/GPIO0*%
X135174400Y-79383600D03*
%TD*%
D12*
%TO.P,D1,1,K_1*%
%TO.N,GND*%
X140360400Y-63576300D03*
%TO.P,D1,2,A_2*%
%TO.N,Net-(D1-A)*%
X140360400Y-62001300D03*
%TD*%
D13*
%TO.P,U3,1,GND_1*%
%TO.N,GND*%
X134296800Y-35178515D03*
%TO.P,U3,2,3V3_2*%
%TO.N,+3V3*%
X134296800Y-36448515D03*
%TO.P,U3,3,EN_3*%
%TO.N,/EN*%
X134296800Y-37718515D03*
%TO.P,U3,4,GPIO4/TOUCH4/ADC1_CH3_4*%
%TO.N,/GPIO4*%
X134296799Y-38988515D03*
%TO.P,U3,5,GPIO5/TOUCH5/ADC1_CH4_5*%
%TO.N,/GPIO5*%
X134296800Y-40258515D03*
%TO.P,U3,6,GPIO6/TOUCH6/ADC1_CH5_6*%
%TO.N,/GPIO6*%
X134296800Y-41528515D03*
%TO.P,U3,7,GPIO7/TOUCH7/ADC1_CH6_7*%
%TO.N,/GPIO7*%
X134296800Y-42798515D03*
%TO.P,U3,8,GPIO15/U0RTS/ADC2_CH4/XTAL_32K_P_8*%
%TO.N,/GPIO15*%
X134296801Y-44068515D03*
%TO.P,U3,9,GPIO16/U0CTS/ADC2_CH5/XTAL_32K_N_9*%
%TO.N,/GPIO16*%
X134296800Y-45338515D03*
%TO.P,U3,10,GPIO17/U1TXD/ADC2_CH6_10*%
%TO.N,/GPIO17*%
X134296799Y-46608515D03*
%TO.P,U3,11,GPIO18/U1RXD/ADC2_CH7/CLK_OUT3_11*%
%TO.N,/GPIO18*%
X134296800Y-47878515D03*
%TO.P,U3,12,GPIO8/TOUCH8/ADC1_CH7/SUBSPICS1_12*%
%TO.N,/GPIO8*%
X134296800Y-49148515D03*
%TO.P,U3,13,GPIO19/U1RTS/ADC2_CH8/CLK_OUT2/USB_D-_13*%
%TO.N,/D-*%
X134296799Y-50418515D03*
%TO.P,U3,14,GPIO20/U1CTS/ADC2_CH9/CLK_OUT1/USB_D+_14*%
%TO.N,/D+*%
X134296800Y-51688515D03*
D14*
%TO.P,U3,15,GPIO3/TOUCH3/ADC1_CH2_15*%
%TO.N,/GPIO3*%
X136061801Y-52938515D03*
%TO.P,U3,16,GPIO46_16*%
%TO.N,/GPIO46*%
X137331800Y-52938515D03*
%TO.P,U3,17,GPIO9/TOUCH9/ADC1_CH8/FSPIHD/SUBSPIHD_17*%
%TO.N,/GPIO9*%
X138601800Y-52938515D03*
%TO.P,U3,18,GPIO10/TOUCH10/ADC1_CH9/FSPICS0/FSPIIO4/SUBSPICS0_18*%
%TO.N,/GPIO10*%
X139871799Y-52938515D03*
%TO.P,U3,19,GPIO11/TOUCH11/ADC2_CH0/FSPID/FSPIIO5/SUBSPID_19*%
%TO.N,/GPIO11*%
X141141801Y-52938514D03*
%TO.P,U3,20,GPIO12/TOUCH12/ADC2_CH1/FSPICLK/FSPIIO6/SUBSPICLK_20*%
%TO.N,/GPIO12*%
X142411800Y-52938515D03*
%TO.P,U3,21,GPIO13/TOUCH13/ADC2_CH2/FSPIQ/FSPIIO7/SUBSPIQ_21*%
%TO.N,/GPIO13*%
X143681800Y-52938516D03*
%TO.P,U3,22,GPIO14/TOUCH14/ADC2_CH3/FSPIWP/FSPIDQS/SUBSPIWP_22*%
%TO.N,/GPIO14*%
X144951799Y-52938515D03*
%TO.P,U3,23,GPIO21_23*%
%TO.N,/GPIO21*%
X146221801Y-52938515D03*
%TO.P,U3,24,GPIO47/SPICLK_P/SUBSPICLK_P_DIFF_24*%
%TO.N,/GPIO47*%
X147491800Y-52938515D03*
%TO.P,U3,25,GPIO48/SPICLK_N/SUBSPICLK_N_DIFF_25*%
%TO.N,/GPIO48*%
X148761800Y-52938515D03*
%TO.P,U3,26,GPIO45_26*%
%TO.N,/GPIO45*%
X150031800Y-52938515D03*
D13*
%TO.P,U3,27,GPIO0/BOOT_27*%
%TO.N,/GPIO0*%
X151796800Y-51688516D03*
%TO.P,U3,28,SPIIO6/GPIO35/FSPID/SUBSPID_28*%
%TO.N,/GPIO35*%
X151796801Y-50418513D03*
%TO.P,U3,29,SPIIO7/GPIO36/FSPICLK/SUBSPICLK_29*%
%TO.N,/GPIO36*%
X151796800Y-49148515D03*
%TO.P,U3,30,SPIDQS/GPIO37/FSPIQ/SUBSPIQ_30*%
%TO.N,/GPIO37*%
X151796800Y-47878515D03*
%TO.P,U3,31,GPIO38/FSPIWP/SUBSPIWP_31*%
%TO.N,/GPIO38*%
X151796800Y-46608515D03*
%TO.P,U3,32,MTCK/GPIO39/CLK_OUT3/SUBSPICS1_32*%
%TO.N,/GPIO39*%
X151796800Y-45338515D03*
%TO.P,U3,33,MTDO/GPIO40/CLK_OUT2_33*%
%TO.N,/GPIO40*%
X151796800Y-44068515D03*
%TO.P,U3,34,MTDI/GPIO41/CLK_OUT1_34*%
%TO.N,/GPIO41*%
X151796800Y-42798514D03*
%TO.P,U3,35,MTMS/GPIO42_35*%
%TO.N,/GPIO42*%
X151796800Y-41528515D03*
%TO.P,U3,36,U0RXD/GPIO44/CLK_OUT2_36*%
%TO.N,/GPIO44*%
X151796800Y-40258515D03*
%TO.P,U3,37,U0TXD/GPIO43/CLK_OUT1_37*%
%TO.N,/GPIO43*%
X151796801Y-38988515D03*
%TO.P,U3,38,GPIO2/TOUCH2/ADC1_CH1_38*%
%TO.N,/GPIO2*%
X151796800Y-37718516D03*
%TO.P,U3,39,GPIO1/TOUCH1/ADC1_CH0_39*%
%TO.N,/GPIO1*%
X151796800Y-36448515D03*
%TO.P,U3,40,GND_40*%
%TO.N,GND*%
X151796800Y-35178515D03*
D15*
%TO.P,U3,41,GND_41*%
X140146799Y-41498515D03*
X140146800Y-42898516D03*
X140146800Y-44298515D03*
X140146800Y-44298515D03*
X141546800Y-41498515D03*
X141546800Y-41498515D03*
X141546800Y-42898515D03*
X141546800Y-44298515D03*
X142946799Y-42898514D03*
X142946800Y-41498515D03*
X142946800Y-44298515D03*
%TD*%
D16*
%TO.P,J1,1,Pin_1_1*%
%TO.N,GND*%
X130637600Y-35304800D03*
D17*
%TO.P,J1,2,Pin_2_2*%
%TO.N,+3V3*%
X130637600Y-37844800D03*
%TO.P,J1,3,Pin_3_3*%
%TO.N,/EN*%
X130637600Y-40384800D03*
%TO.P,J1,4,Pin_4_4*%
%TO.N,/GPIO4*%
X130637600Y-42924800D03*
%TO.P,J1,5,Pin_5_5*%
%TO.N,/GPIO5*%
X130637600Y-45464800D03*
%TO.P,J1,6,Pin_6_6*%
%TO.N,/GPIO6*%
X130637600Y-48004800D03*
%TO.P,J1,7,Pin_7_7*%
%TO.N,/GPIO7*%
X130637600Y-50544800D03*
%TO.P,J1,8,Pin_8_8*%
%TO.N,/GPIO15*%
X130637600Y-53084800D03*
%TO.P,J1,9,Pin_9_9*%
%TO.N,/GPIO16*%
X130637600Y-55624800D03*
%TO.P,J1,10,Pin_10_10*%
%TO.N,/GPIO17*%
X130637600Y-58164800D03*
%TO.P,J1,11,Pin_11_11*%
%TO.N,/GPIO18*%
X130637600Y-60704800D03*
%TO.P,J1,12,Pin_12_12*%
%TO.N,/GPIO8*%
X130637600Y-63244800D03*
%TO.P,J1,13,Pin_13_13*%
%TO.N,/D-*%
X130637600Y-65784800D03*
%TO.P,J1,14,Pin_14_14*%
%TO.N,/D+*%
X130637600Y-68324800D03*
%TO.P,J1,15,Pin_15_15*%
%TO.N,/GPIO3*%
X130637600Y-70864800D03*
%TO.P,J1,16,Pin_16_16*%
%TO.N,/GPIO46*%
X130637600Y-73404800D03*
%TO.P,J1,17,Pin_17_17*%
%TO.N,/GPIO9*%
X130637600Y-75944800D03*
%TO.P,J1,18,Pin_18_18*%
%TO.N,/GPIO10*%
X130637600Y-78484800D03*
%TO.P,J1,19,Pin_19_19*%
%TO.N,/GPIO11*%
X130637600Y-81024800D03*
%TO.P,J1,20,Pin_20_20*%
%TO.N,/GPIO12*%
X130637600Y-83564800D03*
%TD*%
D18*
%TO.P,R3,1*%
%TO.N,Net-(D3-A)*%
X145643598Y-58357000D03*
%TO.P,R3,2*%
%TO.N,/GPIO21*%
X145643602Y-60007000D03*
%TD*%
%TO.P,R2,1*%
%TO.N,Net-(D2-A)*%
X142951200Y-58407800D03*
%TO.P,R2,2*%
%TO.N,+3V3*%
X142951200Y-60057800D03*
%TD*%
%TO.P,R1,1*%
%TO.N,Net-(D1-A)*%
X140258800Y-58521600D03*
%TO.P,R1,2*%
%TO.N,+5V*%
X140258800Y-60171600D03*
%TD*%
D16*
%TO.P,J2,1,Pin_1_1*%
%TO.N,+5V*%
X155357600Y-35304800D03*
D17*
%TO.P,J2,2,Pin_2_2*%
%TO.N,/GPIO1*%
X155357600Y-37844800D03*
%TO.P,J2,3,Pin_3_3*%
%TO.N,/GPIO2*%
X155357600Y-40384800D03*
%TO.P,J2,4,Pin_4_4*%
%TO.N,/GPIO43*%
X155357600Y-42924800D03*
%TO.P,J2,5,Pin_5_5*%
%TO.N,/GPIO44*%
X155357600Y-45464800D03*
%TO.P,J2,6,Pin_6_6*%
%TO.N,/GPIO42*%
X155357600Y-48004800D03*
%TO.P,J2,7,Pin_7_7*%
%TO.N,/GPIO41*%
X155357600Y-50544800D03*
%TO.P,J2,8,Pin_8_8*%
%TO.N,/GPIO40*%
X155357600Y-53084800D03*
%TO.P,J2,9,Pin_9_9*%
%TO.N,/GPIO39*%
X155357600Y-55624800D03*
%TO.P,J2,10,Pin_10_10*%
%TO.N,/GPIO38*%
X155357600Y-58164800D03*
%TO.P,J2,11,Pin_11_11*%
%TO.N,/GPIO37*%
X155357600Y-60704800D03*
%TO.P,J2,12,Pin_12_12*%
%TO.N,/GPIO36*%
X155357600Y-63244800D03*
%TO.P,J2,13,Pin_13_13*%
%TO.N,/GPIO35*%
X155357600Y-65784800D03*
%TO.P,J2,14,Pin_14_14*%
%TO.N,/GPIO0*%
X155357600Y-68324800D03*
%TO.P,J2,15,Pin_15_15*%
%TO.N,/GPIO45*%
X155357600Y-70864800D03*
%TO.P,J2,16,Pin_16_16*%
%TO.N,/GPIO48*%
X155357600Y-73404800D03*
%TO.P,J2,17,Pin_17_17*%
%TO.N,/GPIO47*%
X155357600Y-75944800D03*
%TO.P,J2,18,Pin_18_18*%
%TO.N,/GPIO21*%
X155357600Y-78484800D03*
%TO.P,J2,19,Pin_19_19*%
%TO.N,/GPIO14*%
X155357600Y-81024800D03*
%TO.P,J2,20,Pin_20_20*%
%TO.N,/GPIO13*%
X155357600Y-83564800D03*
%TD*%
D19*
%TO.P,U1,1,GND_1*%
%TO.N,GND*%
X139898000Y-67245600D03*
%TO.P,U1,2,VO_2*%
%TO.N,+3V3*%
X139898000Y-69545601D03*
D20*
X146198000Y-69545599D03*
D19*
%TO.P,U1,3,VI_3*%
%TO.N,+5V*%
X139898000Y-71845599D03*
%TD*%
D10*
%TO.P,C5,1*%
%TO.N,GND*%
X150147400Y-75895600D03*
%TO.P,C5,2*%
%TO.N,/EN*%
X151697400Y-75895600D03*
%TD*%
D21*
%TO.P,J3,A1,GND_A1*%
%TO.N,GND*%
X139800400Y-77963400D03*
%TO.P,J3,A4,VBUS_A4*%
%TO.N,+5V*%
X140600400Y-77963400D03*
D22*
%TO.P,J3,A5,CC1_A5*%
%TO.N,Net-(J3-CC1)*%
X141800400Y-77963400D03*
%TO.P,J3,A6,D+_A6*%
%TO.N,/D+*%
X142800400Y-77963400D03*
%TO.P,J3,A7,D-_A7*%
%TO.N,/D-*%
X143300400Y-77963400D03*
%TO.P,J3,A8,SBU1_A8*%
%TO.N,unconnected-(J3-SBU1-PadA8)*%
X144300400Y-77963400D03*
D21*
%TO.P,J3,A9,VBUS_A9*%
%TO.N,+5V*%
X145500400Y-77963400D03*
%TO.P,J3,A12,GND_A12*%
%TO.N,GND*%
X146300400Y-77963400D03*
%TO.P,J3,B1,GND_B1*%
X146300400Y-77963400D03*
%TO.P,J3,B4,VBUS_B4*%
%TO.N,+5V*%
X145500400Y-77963400D03*
D22*
%TO.P,J3,B5,CC2_B5*%
%TO.N,Net-(J3-CC2)*%
X144800400Y-77963400D03*
%TO.P,J3,B6,D+_B6*%
%TO.N,/D+*%
X143800400Y-77963400D03*
%TO.P,J3,B7,D-_B7*%
%TO.N,/D-*%
X142300400Y-77963400D03*
%TO.P,J3,B8,SBU2_B8*%
%TO.N,unconnected-(J3-SBU2-PadB8)*%
X141300400Y-77963400D03*
D21*
%TO.P,J3,B9,VBUS_B9*%
%TO.N,+5V*%
X140600400Y-77963400D03*
%TO.P,J3,B12,GND_B12*%
%TO.N,GND*%
X139800400Y-77963400D03*
D23*
%TO.P,J3,S1,SHIELD_S1*%
X138730400Y-78878400D03*
D24*
X138730400Y-83058400D03*
D23*
X147370400Y-78878400D03*
D24*
X147370400Y-83058400D03*
%TD*%
D12*
%TO.P,D3,1,K_1*%
%TO.N,GND*%
X145637600Y-63551400D03*
%TO.P,D3,2,A_2*%
%TO.N,Net-(D3-A)*%
X145637600Y-61976400D03*
%TD*%
D25*
%TO.P,R5,1*%
%TO.N,GND*%
X147129000Y-75336400D03*
%TO.P,R5,2*%
%TO.N,Net-(J3-CC2)*%
X145479000Y-75336400D03*
%TD*%
%TO.P,R4,1*%
%TO.N,Net-(J3-CC1)*%
X140660800Y-75387600D03*
%TO.P,R4,2*%
%TO.N,GND*%
X139010800Y-75387600D03*
%TD*%
D10*
%TO.P,C3,1*%
%TO.N,+3V3*%
X148979000Y-69515600D03*
%TO.P,C3,2*%
%TO.N,GND*%
X150529000Y-69515600D03*
%TD*%
%TO.P,C4,1*%
%TO.N,+3V3*%
X148978999Y-72025600D03*
%TO.P,C4,2*%
%TO.N,GND*%
X150529001Y-72025600D03*
%TD*%
%TO.P,C2,1*%
%TO.N,+3V3*%
X148729400Y-67157599D03*
%TO.P,C2,2*%
%TO.N,GND*%
X150279400Y-67157601D03*
%TD*%
D25*
%TO.P,R6,1*%
%TO.N,+3V3*%
X151747400Y-77724400D03*
%TO.P,R6,2*%
%TO.N,/EN*%
X150097400Y-77724400D03*
%TD*%
D12*
%TO.P,D2,1,K_1*%
%TO.N,GND*%
X142951200Y-63576300D03*
%TO.P,D2,2,A_2*%
%TO.N,Net-(D2-A)*%
X142951200Y-62001300D03*
%TD*%
D26*
%TO.N,+5V*%
X141500000Y-56500000D03*
%TO.N,GND*%
X144000000Y-48000000D03*
X150000000Y-66000000D03*
X142000000Y-64500000D03*
X151500000Y-73000000D03*
X146500000Y-63500000D03*
%TO.N,/EN*%
X145900000Y-48600000D03*
X152500000Y-78500000D03*
X140000000Y-46500000D03*
%TO.N,/GPIO0*%
X153000000Y-74500000D03*
X151500000Y-54500000D03*
%TO.N,+3V3*%
X136194800Y-38557200D03*
X142000000Y-60500000D03*
%TO.N,/GPIO15*%
X136000000Y-42500000D03*
%TO.N,/GPIO16*%
X136500000Y-44000000D03*
%TO.N,/GPIO17*%
X136174265Y-45500000D03*
%TO.N,/GPIO18*%
X136500000Y-46500000D03*
%TO.N,/GPIO8*%
X136500000Y-47500000D03*
%TO.N,/D-*%
X136340901Y-49840901D03*
X143500000Y-74840901D03*
%TO.N,/D+*%
X136500000Y-51000000D03*
X143500000Y-75640904D03*
%TO.N,/GPIO3*%
X135000000Y-54500000D03*
%TO.N,/GPIO46*%
X136500000Y-55000000D03*
%TO.N,/GPIO9*%
X136500000Y-56500000D03*
%TO.N,/GPIO10*%
X136600000Y-58000000D03*
%TO.N,/GPIO13*%
X144434312Y-55065688D03*
X147000000Y-56000000D03*
%TO.N,/GPIO14*%
X145250000Y-54750000D03*
X148000000Y-55000000D03*
%TO.N,/GPIO21*%
X145000000Y-61000000D03*
%TO.N,/GPIO47*%
X148000000Y-49500000D03*
%TO.N,/GPIO48*%
X149500000Y-47500000D03*
%TO.N,/GPIO38*%
X149375000Y-46375000D03*
%TO.N,/GPIO39*%
X149500000Y-44000000D03*
%TO.N,/GPIO40*%
X150000000Y-42500000D03*
%TO.N,Net-(D2-A)*%
X144023400Y-60000000D03*
X142000000Y-61300003D03*
%TD*%
%TO.N,+5V*%
D27*
X139860800Y-71882800D02*
X139860800Y-75916670D01*
X138287200Y-71845600D02*
X135987200Y-69545600D01*
X139898000Y-71845600D02*
X139860800Y-71882800D01*
X141500000Y-56500000D02*
X141500000Y-59062300D01*
X140600400Y-76656270D02*
X140600400Y-77963400D01*
X140600400Y-77963400D02*
X140600400Y-78752384D01*
X140600400Y-78752384D02*
X142176416Y-80328400D01*
X143924384Y-80328400D02*
X145500400Y-78752384D01*
X135987200Y-69545600D02*
X135987200Y-64575100D01*
X135987200Y-64575100D02*
X140485600Y-60076700D01*
X139898000Y-71845600D02*
X138287200Y-71845600D01*
X142176416Y-80328400D02*
X143924384Y-80328400D01*
X141500000Y-59062300D02*
X140485600Y-60076700D01*
X145500400Y-78752384D02*
X145500400Y-77963400D01*
X139860800Y-75916670D02*
X140600400Y-76656270D01*
%TO.N,GND*%
D28*
X134166400Y-35304800D02*
X134296800Y-35435200D01*
X150448000Y-83058400D02*
X150922400Y-83532800D01*
X141546800Y-41755200D02*
X141546800Y-44555200D01*
X142946800Y-44555200D02*
X140146800Y-41755200D01*
X142000000Y-64500000D02*
X141406200Y-64500000D01*
X140146800Y-44555200D02*
X142946800Y-41755200D01*
X142000000Y-64500000D02*
X142099000Y-64500000D01*
X140146800Y-40646800D02*
X140146800Y-41755200D01*
X134935200Y-35435200D02*
X140146800Y-40646800D01*
X138205200Y-83583600D02*
X138730400Y-83058400D01*
X139898000Y-67245600D02*
X139898000Y-66602000D01*
X147683400Y-75895600D02*
X147175400Y-75387600D01*
X147175400Y-75387600D02*
X147175400Y-77088400D01*
X142946800Y-44555200D02*
X142946800Y-41755200D01*
X150529000Y-66529000D02*
X150000000Y-66000000D01*
X139800400Y-77963400D02*
X139645400Y-77963400D01*
X147370400Y-78878400D02*
X147215400Y-78878400D01*
X139010800Y-77173800D02*
X139010800Y-75387600D01*
X141406200Y-64500000D02*
X140457600Y-63551400D01*
X130637600Y-35304800D02*
X134166400Y-35304800D01*
X139837200Y-67245600D02*
X137537200Y-69545600D01*
X142946800Y-46946800D02*
X144000000Y-48000000D01*
X150529000Y-72025600D02*
X150529000Y-67005600D01*
X139898000Y-67245600D02*
X139837200Y-67245600D01*
X145637600Y-63551400D02*
X146448600Y-63551400D01*
X139898000Y-66602000D02*
X142000000Y-64500000D01*
X142946800Y-41755200D02*
X149266800Y-35435200D01*
X142946800Y-41755200D02*
X140146800Y-41755200D01*
X140146800Y-41755200D02*
X140146800Y-44555200D01*
X150529000Y-67005600D02*
X150529000Y-66529000D01*
X139800400Y-77963400D02*
X139010800Y-77173800D01*
X140146800Y-43155200D02*
X142946800Y-43155200D01*
X149266800Y-35435200D02*
X151796800Y-35435200D01*
X135174400Y-83583600D02*
X138205200Y-83583600D01*
X147175400Y-77088400D02*
X146300400Y-77963400D01*
X140146800Y-44555200D02*
X142946800Y-44555200D01*
X142946800Y-44555200D02*
X142946800Y-46946800D01*
X134296800Y-35435200D02*
X134935200Y-35435200D01*
X147215400Y-78878400D02*
X146300400Y-77963400D01*
X150147400Y-75895600D02*
X147683400Y-75895600D01*
X139645400Y-77963400D02*
X138730400Y-78878400D01*
X151500000Y-72996600D02*
X150529000Y-72025600D01*
X142099000Y-64500000D02*
X143047600Y-63551400D01*
X147370400Y-83058400D02*
X150448000Y-83058400D01*
X151500000Y-73000000D02*
X151500000Y-72996600D01*
X146448600Y-63551400D02*
X146500000Y-63500000D01*
%TO.N,/EN*%
X151667200Y-79332800D02*
X152500000Y-78500000D01*
X150097400Y-77724400D02*
X150097400Y-77495600D01*
X150922400Y-78549400D02*
X150097400Y-77724400D01*
X130637600Y-40384800D02*
X130637600Y-39362400D01*
X150922400Y-79332800D02*
X151667200Y-79332800D01*
X150097400Y-77495600D02*
X151697400Y-75895600D01*
X131108746Y-39000000D02*
X132000000Y-38108746D01*
X132524800Y-37975200D02*
X134296800Y-37975200D01*
X132000000Y-38000000D02*
X132500000Y-38000000D01*
X132000000Y-38108746D02*
X132000000Y-38000000D01*
X150922400Y-79332800D02*
X150922400Y-78549400D01*
X145900000Y-48600000D02*
X146000000Y-48500000D01*
X131000000Y-39000000D02*
X131108746Y-39000000D01*
X130637600Y-39362400D02*
X131000000Y-39000000D01*
X140000000Y-46500000D02*
X142100000Y-48600000D01*
X142100000Y-48600000D02*
X145900000Y-48600000D01*
X132500000Y-38000000D02*
X132524800Y-37975200D01*
%TO.N,/GPIO0*%
X152600000Y-52748400D02*
X152600000Y-65567200D01*
X151796800Y-54203200D02*
X151500000Y-54500000D01*
X151796800Y-51945200D02*
X151796800Y-54203200D01*
X153100000Y-74600000D02*
X153100000Y-78867848D01*
X153000000Y-74500000D02*
X153100000Y-74600000D01*
X153100000Y-78867848D02*
X151139448Y-80828400D01*
X152600000Y-65567200D02*
X155357600Y-68324800D01*
X151796800Y-51945200D02*
X152600000Y-52748400D01*
X136619200Y-80828400D02*
X135174400Y-79383600D01*
X151139448Y-80828400D02*
X136619200Y-80828400D01*
%TO.N,Net-(D1-A)*%
X142100000Y-59169406D02*
X142100000Y-56251471D01*
X141748529Y-55900000D02*
X141251471Y-55900000D01*
X140485600Y-56665871D02*
X140485600Y-58426700D01*
X142100000Y-56251471D02*
X141748529Y-55900000D01*
X140457600Y-61976400D02*
X141260600Y-61173400D01*
X141260600Y-61173400D02*
X141260600Y-60008806D01*
X141251471Y-55900000D02*
X140485600Y-56665871D01*
X141260600Y-60008806D02*
X142100000Y-59169406D01*
%TO.N,+3V3*%
D27*
X148979000Y-69515600D02*
X148979000Y-72025600D01*
X142000000Y-60500000D02*
X142568000Y-60500000D01*
X151529506Y-76770600D02*
X152187518Y-76770600D01*
X139898000Y-69545600D02*
X146198000Y-69545600D01*
X135540127Y-36798527D02*
X135446800Y-36705200D01*
X150067518Y-72900600D02*
X149854000Y-72900600D01*
X135446800Y-36705200D02*
X134296800Y-36705200D01*
X142568000Y-60500000D02*
X143048400Y-60019600D01*
X152187518Y-75020600D02*
X151500000Y-75020600D01*
X151500000Y-76800106D02*
X151529506Y-76770600D01*
X143922600Y-60893800D02*
X143048400Y-60019600D01*
X152187518Y-76770600D02*
X152547400Y-76410718D01*
X136194800Y-38557200D02*
X135540127Y-37902527D01*
X149854000Y-72900600D02*
X148979000Y-72025600D01*
X146198000Y-69545600D02*
X143922600Y-67270200D01*
X152547400Y-75380482D02*
X152187518Y-75020600D01*
X151500000Y-75020600D02*
X151500000Y-74333082D01*
X151500000Y-74333082D02*
X150067518Y-72900600D01*
X148979000Y-69515600D02*
X148979000Y-67005600D01*
X151747400Y-77724400D02*
X151500000Y-77477000D01*
X143922600Y-67270200D02*
X143922600Y-60893800D01*
X146198000Y-69545600D02*
X148949000Y-69545600D01*
X148949000Y-69545600D02*
X148979000Y-69515600D01*
X152547400Y-76410718D02*
X152547400Y-75380482D01*
X135540127Y-37902527D02*
X135540127Y-36798527D01*
X151500000Y-77477000D02*
X151500000Y-76800106D01*
%TO.N,/GPIO4*%
D28*
X131787600Y-39287600D02*
X131787600Y-41774800D01*
X133000000Y-38375200D02*
X132690486Y-38375200D01*
X133870000Y-39245200D02*
X133000000Y-38375200D01*
X132690486Y-38375200D02*
X131978470Y-39087216D01*
X131978470Y-39087216D02*
X131587216Y-39087216D01*
X131787600Y-41774800D02*
X130637600Y-42924800D01*
X134296800Y-39245200D02*
X133870000Y-39245200D01*
X131587216Y-39087216D02*
X131787600Y-39287600D01*
%TO.N,/GPIO5*%
X131787600Y-42448454D02*
X131787600Y-43401146D01*
X131787600Y-43401146D02*
X131500000Y-43688746D01*
X133000000Y-40168400D02*
X133000000Y-39000000D01*
X132187600Y-39812400D02*
X132187600Y-42048454D01*
X134296800Y-40515200D02*
X133346800Y-40515200D01*
X133346800Y-40515200D02*
X133000000Y-40168400D01*
X131500000Y-43688746D02*
X131500000Y-44602400D01*
X132187600Y-42048454D02*
X131787600Y-42448454D01*
X133000000Y-39000000D02*
X132187600Y-39812400D01*
X131500000Y-44602400D02*
X130637600Y-45464800D01*
%TO.N,/GPIO6*%
X132187600Y-45541146D02*
X130637600Y-47091146D01*
X133000000Y-41000000D02*
X132587600Y-41412400D01*
X133785200Y-41785200D02*
X133000000Y-41000000D01*
X134296800Y-41785200D02*
X133785200Y-41785200D01*
X132587600Y-42214140D02*
X132187600Y-42614140D01*
X132187600Y-42614140D02*
X132187600Y-45541146D01*
X132587600Y-41412400D02*
X132587600Y-42214140D01*
X130637600Y-47091146D02*
X130637600Y-48004800D01*
%TO.N,/GPIO7*%
X133000000Y-42500000D02*
X132587600Y-42912400D01*
X132000000Y-49182400D02*
X130637600Y-50544800D01*
X132587600Y-45912400D02*
X132000000Y-46500000D01*
X132587600Y-42912400D02*
X132587600Y-45912400D01*
X133555200Y-43055200D02*
X133000000Y-42500000D01*
X134296800Y-43055200D02*
X133555200Y-43055200D01*
X132000000Y-46500000D02*
X132000000Y-49182400D01*
%TO.N,/GPIO15*%
X136000000Y-42500000D02*
X136000000Y-43572000D01*
X135246800Y-44325200D02*
X134296800Y-44325200D01*
X136000000Y-43572000D02*
X135246800Y-44325200D01*
%TO.N,/GPIO16*%
X134904800Y-45595200D02*
X134296800Y-45595200D01*
X136500000Y-44000000D02*
X134904800Y-45595200D01*
%TO.N,/GPIO17*%
X136174265Y-45825735D02*
X135134800Y-46865200D01*
X135134800Y-46865200D02*
X134296800Y-46865200D01*
X136174265Y-45500000D02*
X136174265Y-45825735D01*
%TO.N,/GPIO18*%
X136500000Y-46500000D02*
X134864800Y-48135200D01*
X134864800Y-48135200D02*
X134296800Y-48135200D01*
%TO.N,/GPIO8*%
X136500000Y-48152000D02*
X135246800Y-49405200D01*
X135246800Y-49405200D02*
X134296800Y-49405200D01*
X136500000Y-47500000D02*
X136500000Y-48152000D01*
%TO.N,/D-*%
X132740000Y-55379993D02*
X132975551Y-55379993D01*
X135285961Y-50703961D02*
X135477841Y-50703961D01*
X143451474Y-74840901D02*
X142900000Y-75392375D01*
X132500000Y-63922400D02*
X132500000Y-59480543D01*
X132500000Y-54539993D02*
X132500000Y-54419993D01*
X132500000Y-54073673D02*
X132500000Y-51243600D01*
X142350400Y-76938400D02*
X143250400Y-76938400D01*
X132500000Y-59356354D02*
X132500000Y-55619993D01*
X143500000Y-74840901D02*
X143451474Y-74840901D01*
X132500000Y-54419993D02*
X132500000Y-54073673D01*
X142900000Y-75392375D02*
X142900000Y-76488000D01*
X143300400Y-76888400D02*
X143300400Y-77963400D01*
X132500000Y-51243600D02*
X133068400Y-50675200D01*
X135229600Y-50647600D02*
X135285961Y-50703961D01*
X142300400Y-77963400D02*
X142300400Y-76988400D01*
X136340901Y-49840901D02*
X135793800Y-50388002D01*
X133068400Y-50675200D02*
X134596800Y-50675200D01*
X130637600Y-65784800D02*
X132500000Y-63922400D01*
X132975551Y-54779993D02*
X132740000Y-54779993D01*
X133215551Y-55139993D02*
X133215551Y-55019993D01*
X142300400Y-76988400D02*
X142350400Y-76938400D01*
X134596800Y-50675200D02*
X134624400Y-50647600D01*
X142900000Y-76488000D02*
X143300400Y-76888400D01*
X143300400Y-76988400D02*
X143300400Y-77963400D01*
X132500000Y-59480543D02*
X132500000Y-59356354D01*
X134624400Y-50647600D02*
X135229600Y-50647600D01*
X143250400Y-76938400D02*
X143300400Y-76988400D01*
X135793800Y-50388002D02*
X135477841Y-50703961D01*
X133215551Y-55019993D02*
G75*
G03*
X132975551Y-54780049I-239951J-7D01*
G01*
X132500000Y-55619993D02*
G75*
G02*
X132740000Y-55380000I240000J-7D01*
G01*
X132975551Y-55379993D02*
G75*
G03*
X133215593Y-55139993I49J239993D01*
G01*
X132740000Y-54779993D02*
G75*
G02*
X132500007Y-54539993I0J239993D01*
G01*
%TO.N,/D+*%
X142862000Y-79000000D02*
X143738800Y-79000000D01*
X135754749Y-51063449D02*
X135756545Y-51061653D01*
X143738800Y-79000000D02*
X143800400Y-78938400D01*
X143800400Y-78938400D02*
X143800400Y-77963400D01*
X143800400Y-77963400D02*
X143800400Y-76253684D01*
X135754749Y-51063449D02*
X135521721Y-51296477D01*
X143800400Y-76253684D02*
X143800400Y-76246476D01*
X133000000Y-57500000D02*
X133000000Y-57917257D01*
X135282998Y-51535200D02*
X135006800Y-51535200D01*
X134000000Y-54000000D02*
X134000000Y-56500000D01*
X143800400Y-75941304D02*
X143800400Y-76138363D01*
X143800400Y-76138363D02*
X143800400Y-76246476D01*
X143500000Y-75640904D02*
X143800400Y-75941304D01*
X133000000Y-57917257D02*
X133000000Y-65962400D01*
X134000000Y-56500000D02*
X133080760Y-57419238D01*
X136500000Y-51000000D02*
X136659099Y-51000000D01*
X142800400Y-77963400D02*
X142800400Y-78938400D01*
X134296800Y-51945200D02*
X134296800Y-53703200D01*
X135006800Y-51535200D02*
X134596800Y-51945200D01*
X135818198Y-51000000D02*
X136500000Y-51000000D01*
X143850400Y-77913400D02*
X143850400Y-77500000D01*
X133000000Y-65962400D02*
X130637600Y-68324800D01*
X135756545Y-51061653D02*
X135818198Y-51000000D01*
X133080760Y-57419238D02*
X133000000Y-57500000D01*
X135521721Y-51296477D02*
X135282998Y-51535200D01*
X142800400Y-78938400D02*
X142862000Y-79000000D01*
X134296800Y-53703200D02*
X134000000Y-54000000D01*
X134596800Y-51945200D02*
X134296800Y-51945200D01*
%TO.N,/GPIO3*%
X135000000Y-54257000D02*
X136061800Y-53195200D01*
X135000000Y-54500000D02*
X135000000Y-54257000D01*
%TO.N,/GPIO46*%
X136500000Y-55000000D02*
X137331800Y-54168200D01*
X137331800Y-54168200D02*
X137331800Y-53195200D01*
%TO.N,/GPIO9*%
X136500000Y-56500000D02*
X138601800Y-54398200D01*
X138601800Y-54398200D02*
X138601800Y-53195200D01*
%TO.N,/GPIO10*%
X139871800Y-54728200D02*
X139871800Y-53195200D01*
X136600000Y-58000000D02*
X139871800Y-54728200D01*
%TO.N,/GPIO11*%
X130637600Y-81024800D02*
X132000000Y-79662400D01*
X139000000Y-56500000D02*
X141141800Y-54358200D01*
X141141800Y-54358200D02*
X141141800Y-53195200D01*
X133500000Y-66028085D02*
X133500000Y-62500000D01*
X132000000Y-79662400D02*
X132000000Y-67528086D01*
X132000000Y-67528086D02*
X133500000Y-66028085D01*
X133500000Y-62500000D02*
X139000000Y-57000000D01*
X139000000Y-57000000D02*
X139000000Y-56500000D01*
%TO.N,/GPIO12*%
X130637600Y-83564800D02*
X132400000Y-81802400D01*
X134000000Y-62565686D02*
X142411800Y-54153886D01*
X132400000Y-67693772D02*
X134000000Y-66093772D01*
X134000000Y-66093772D02*
X134000000Y-62565686D01*
X132400000Y-81802400D02*
X132400000Y-67693772D01*
X142411800Y-54153886D02*
X142411800Y-53195200D01*
%TO.N,/GPIO13*%
X144434312Y-55065688D02*
X143681800Y-54313175D01*
X151400000Y-68038570D02*
X151400000Y-56831372D01*
X150500000Y-56000000D02*
X147000000Y-56000000D01*
X151400000Y-56831372D02*
X150534314Y-55965686D01*
X150534314Y-55965686D02*
X150500000Y-56000000D01*
X155357600Y-83564800D02*
X153600000Y-81807200D01*
X143681800Y-54313175D02*
X143681800Y-53195200D01*
X153600000Y-81807200D02*
X153600000Y-70238572D01*
X153600000Y-70238572D02*
X151400000Y-68038570D01*
%TO.N,/GPIO14*%
X155357600Y-81024800D02*
X154000000Y-79667200D01*
X154000000Y-79667200D02*
X154000000Y-70072886D01*
X145250000Y-54750000D02*
X144951800Y-54451800D01*
X151800000Y-67872885D02*
X151800000Y-56665686D01*
X154000000Y-70072886D02*
X151800000Y-67872885D01*
X151800000Y-56665686D02*
X150134314Y-55000000D01*
X150134314Y-55000000D02*
X148000000Y-55000000D01*
X144951800Y-54451800D02*
X144951800Y-53195200D01*
%TO.N,/GPIO21*%
X146221800Y-53195200D02*
X146221800Y-56317800D01*
X144678400Y-59058800D02*
X145639200Y-60019600D01*
X144678400Y-57861200D02*
X144678400Y-59058800D01*
X145639200Y-60019600D02*
X145000000Y-60658800D01*
X145000000Y-60658800D02*
X145000000Y-61000000D01*
X146221800Y-56317800D02*
X144678400Y-57861200D01*
%TO.N,/GPIO47*%
X147491800Y-50008200D02*
X147491800Y-53195200D01*
X148000000Y-49500000D02*
X147491800Y-50008200D01*
%TO.N,/GPIO48*%
X149000000Y-48000000D02*
X149000000Y-51500000D01*
X148761800Y-51738200D02*
X148761800Y-53195200D01*
X149500000Y-47500000D02*
X149000000Y-48000000D01*
X149000000Y-51500000D02*
X148761800Y-51738200D01*
%TO.N,/GPIO45*%
X150031800Y-54331800D02*
X150031800Y-53195200D01*
X152200000Y-56500000D02*
X150031800Y-54331800D01*
X152200000Y-67707200D02*
X152200000Y-56500000D01*
X155357600Y-70864800D02*
X152200000Y-67707200D01*
%TO.N,/GPIO35*%
X152478400Y-50675200D02*
X151796800Y-50675200D01*
X155357600Y-65784800D02*
X153000000Y-63427200D01*
X153000000Y-51196800D02*
X152478400Y-50675200D01*
X153000000Y-63427200D02*
X153000000Y-51196800D01*
%TO.N,/GPIO36*%
X152905200Y-49405200D02*
X153407600Y-49907600D01*
X153407600Y-49907600D02*
X153407600Y-61294800D01*
X153407600Y-61294800D02*
X155357600Y-63244800D01*
X151796800Y-49405200D02*
X152905200Y-49405200D01*
%TO.N,/GPIO37*%
X155357600Y-60704800D02*
X153807600Y-59154800D01*
X153807600Y-59154800D02*
X153807600Y-48807600D01*
X153135200Y-48135200D02*
X151796800Y-48135200D01*
X153807600Y-48807600D02*
X153135200Y-48135200D01*
%TO.N,/GPIO38*%
X149865200Y-46865200D02*
X151796800Y-46865200D01*
X149375000Y-46375000D02*
X149865200Y-46865200D01*
%TO.N,/GPIO39*%
X150095200Y-45595200D02*
X151796800Y-45595200D01*
X149500000Y-44000000D02*
X149500000Y-45000000D01*
X149500000Y-45000000D02*
X150095200Y-45595200D01*
%TO.N,/GPIO40*%
X150000000Y-42500000D02*
X150000000Y-43478400D01*
X150000000Y-43478400D02*
X150846800Y-44325200D01*
X150846800Y-44325200D02*
X151796800Y-44325200D01*
%TO.N,/GPIO41*%
X154207600Y-49394800D02*
X155357600Y-50544800D01*
X152746800Y-43055200D02*
X153000000Y-43308400D01*
X153000000Y-45299232D02*
X154000000Y-46299232D01*
X154000000Y-46649616D02*
X154064816Y-46649616D01*
X153000000Y-43308400D02*
X153000000Y-45299232D01*
X151796800Y-43055200D02*
X152746800Y-43055200D01*
X154064816Y-46649616D02*
X154207600Y-46792400D01*
X154207600Y-46792400D02*
X154207600Y-49394800D01*
X154000000Y-46299232D02*
X154000000Y-46649616D01*
%TO.N,/GPIO42*%
X152746800Y-41785200D02*
X153500000Y-42538400D01*
X155357600Y-47091146D02*
X155357600Y-48004800D01*
X153500000Y-45233546D02*
X155357600Y-47091146D01*
X153500000Y-42538400D02*
X153500000Y-45233546D01*
X151796800Y-41785200D02*
X152746800Y-41785200D01*
%TO.N,/GPIO44*%
X153933557Y-44040757D02*
X153933557Y-42066443D01*
X155357600Y-45464800D02*
X153933557Y-44040757D01*
X153500000Y-41632885D02*
X153500000Y-41000000D01*
X153933557Y-42066443D02*
X153500000Y-41632885D01*
X153015200Y-40515200D02*
X151796800Y-40515200D01*
X153500000Y-41000000D02*
X153015200Y-40515200D01*
%TO.N,/GPIO43*%
X153953557Y-39546443D02*
X153546443Y-39546443D01*
X155357600Y-42924800D02*
X153953557Y-41520757D01*
X153953557Y-41520757D02*
X153953557Y-39546443D01*
X153245200Y-39245200D02*
X151796800Y-39245200D01*
X153546443Y-39546443D02*
X153245200Y-39245200D01*
%TO.N,/GPIO2*%
X154000000Y-38000000D02*
X153500000Y-37500000D01*
X152272000Y-37500000D02*
X151796800Y-37975200D01*
X153500000Y-37500000D02*
X152272000Y-37500000D01*
X154000000Y-39027200D02*
X154000000Y-38000000D01*
X155357600Y-40384800D02*
X154000000Y-39027200D01*
%TO.N,/GPIO1*%
X155357600Y-37844800D02*
X154218000Y-36705200D01*
X154218000Y-36705200D02*
X151796800Y-36705200D01*
%TO.N,Net-(D3-A)*%
X145637600Y-61976400D02*
X146500000Y-61114000D01*
X146500000Y-59230400D02*
X145639200Y-58369600D01*
X146500000Y-61114000D02*
X146500000Y-59230400D01*
%TO.N,Net-(D2-A)*%
X143048400Y-58369600D02*
X144000000Y-59321200D01*
X143047600Y-61976400D02*
X142676397Y-61976400D01*
X142676397Y-61976400D02*
X142000000Y-61300003D01*
X144000000Y-60000000D02*
X144023400Y-60000000D01*
X144000000Y-59321200D02*
X144000000Y-60000000D01*
%TO.N,Net-(J3-CC1)*%
X141800400Y-76527200D02*
X141800400Y-77963400D01*
X140660800Y-75387600D02*
X141800400Y-76527200D01*
%TO.N,Net-(J3-CC2)*%
X145525400Y-75387600D02*
X144800400Y-76112600D01*
X144800400Y-76112600D02*
X144800400Y-77963400D01*
%TD*%
M02*
