M48
; DRILL file KiCad 10.0.3 date 2026-06-14T14:45:53
; FORMAT={-:-/ absolute / metric / decimal}
; #@! TF.CreationDate,2026-06-14T14:45:53-05:00
; #@! TF.GenerationSoftware,Kicad,Pcbnew,10.0.3
; #@! TF.FileFunction,Plated,1,2,PTH
FMAT,2
METRIC
; #@! TA.AperFunction,Plated,PTH,ViaDrill
T1C0.300
; #@! TA.AperFunction,Plated,PTH,ComponentDrill
T2C0.600
; #@! TA.AperFunction,Plated,PTH,ComponentDrill
T3C1.000
%
G90
G05
T1
X135.0Y-54.5
X136.0Y-42.5
X136.174Y-45.5
X136.195Y-38.557
X136.341Y-49.841
X136.5Y-44.0
X136.5Y-46.5
X136.5Y-47.5
X136.5Y-51.0
X136.5Y-55.0
X136.5Y-56.5
X136.6Y-58.0
X140.0Y-46.5
X141.5Y-56.5
X142.0Y-60.5
X142.0Y-61.3
X142.0Y-64.5
X143.5Y-74.841
X143.5Y-75.641
X144.0Y-48.0
X144.023Y-60.0
X144.434Y-55.066
X145.0Y-61.0
X145.25Y-54.75
X145.9Y-48.6
X146.5Y-63.5
X147.0Y-56.0
X148.0Y-49.5
X148.0Y-55.0
X149.375Y-46.375
X149.5Y-44.0
X149.5Y-47.5
X150.0Y-42.5
X150.0Y-66.0
X151.5Y-54.5
X151.5Y-73.0
X152.5Y-78.5
X153.0Y-74.5
T3
X130.638Y-35.305
X130.638Y-37.845
X130.638Y-40.385
X130.638Y-42.925
X130.638Y-45.465
X130.638Y-48.005
X130.638Y-50.545
X130.638Y-53.085
X130.638Y-55.625
X130.638Y-58.165
X130.638Y-60.705
X130.638Y-63.245
X130.638Y-65.785
X130.638Y-68.325
X130.638Y-70.865
X130.638Y-73.405
X130.638Y-75.945
X130.638Y-78.485
X130.638Y-81.025
X130.638Y-83.565
X155.358Y-35.305
X155.358Y-37.845
X155.358Y-40.385
X155.358Y-42.925
X155.358Y-45.465
X155.358Y-48.005
X155.358Y-50.545
X155.358Y-53.085
X155.358Y-55.625
X155.358Y-58.165
X155.358Y-60.705
X155.358Y-63.245
X155.358Y-65.785
X155.358Y-68.325
X155.358Y-70.865
X155.358Y-73.405
X155.358Y-75.945
X155.358Y-78.485
X155.358Y-81.025
X155.358Y-83.565
T2
G00X138.73Y-78.328
M15
G01X138.73Y-79.428
M16
G05
G00X138.73Y-82.758
M15
G01X138.73Y-83.358
M16
G05
G00X147.37Y-78.328
M15
G01X147.37Y-79.428
M16
G05
G00X147.37Y-82.758
M15
G01X147.37Y-83.358
M16
G05
M30
