%TF.GenerationSoftware,KiCad,Pcbnew,10.0.3*%
%TF.CreationDate,2026-06-14T14:45:45-05:00*%
%TF.ProjectId,Sax32,53617833-322e-46b6-9963-61645f706362,rev?*%
%TF.SameCoordinates,Original*%
%TF.FileFunction,Paste,Top*%
%TF.FilePolarity,Positive*%
%FSLAX46Y46*%
G04 Gerber Fmt 4.6, Leading zero omitted, Abs format (unit mm)*
G04 Created by KiCad (PCBNEW 10.0.3) date 2026-06-14 14:45:45*
%MOMM*%
%LPD*%
G01*
G04 APERTURE LIST*
G04 Aperture macros list*
%AMRoundRect*
0 Rectangle with rounded corners*
0 $1 Rounding radius*
0 $2 $3 $4 $5 $6 $7 $8 $9 X,Y pos of 4 corners*
0 Add a 4 corners polygon primitive as box body*
4,1,4,$2,$3,$4,$5,$6,$7,$8,$9,$2,$3,0*
0 Add four circle primitives for the rounded corners*
1,1,$1+$1,$2,$3*
1,1,$1+$1,$4,$5*
1,1,$1+$1,$6,$7*
1,1,$1+$1,$8,$9*
0 Add four rect primitives between the rounded corners*
20,1,$1+$1,$2,$3,$4,$5,0*
20,1,$1+$1,$4,$5,$6,$7,0*
20,1,$1+$1,$6,$7,$8,$9,0*
20,1,$1+$1,$8,$9,$2,$3,0*%
G04 Aperture macros list end*
%ADD10RoundRect,0.225000X-0.225000X-0.250000X0.225000X-0.250000X0.225000X0.250000X-0.225000X0.250000X0*%
%ADD11RoundRect,0.200000X0.800000X-0.200000X0.800000X0.200000X-0.800000X0.200000X-0.800000X-0.200000X0*%
%ADD12RoundRect,0.218750X0.256250X-0.218750X0.256250X0.218750X-0.256250X0.218750X-0.256250X-0.218750X0*%
%ADD13R,1.500000X0.900000*%
%ADD14R,0.900000X1.500000*%
%ADD15R,0.900000X0.900000*%
%ADD16RoundRect,0.200000X-0.275000X0.200000X-0.275000X-0.200000X0.275000X-0.200000X0.275000X0.200000X0*%
%ADD17RoundRect,0.375000X-0.625000X-0.375000X0.625000X-0.375000X0.625000X0.375000X-0.625000X0.375000X0*%
%ADD18RoundRect,0.500000X-0.500000X-1.400000X0.500000X-1.400000X0.500000X1.400000X-0.500000X1.400000X0*%
%ADD19R,0.600000X1.450000*%
%ADD20R,0.300000X1.450000*%
%ADD21RoundRect,0.200000X0.200000X0.275000X-0.200000X0.275000X-0.200000X-0.275000X0.200000X-0.275000X0*%
G04 APERTURE END LIST*
D10*
%TO.C,C1*%
X135987200Y-69545600D03*
X137537200Y-69545600D03*
%TD*%
D11*
%TO.C,RST*%
X150922400Y-83532800D03*
X150922400Y-79332800D03*
%TD*%
%TO.C,BOOT*%
X135174400Y-83583600D03*
X135174400Y-79383600D03*
%TD*%
D12*
%TO.C,D1*%
X140360400Y-63576300D03*
X140360400Y-62001300D03*
%TD*%
D13*
%TO.C,U3*%
X134296800Y-35178515D03*
X134296800Y-36448515D03*
X134296800Y-37718515D03*
X134296799Y-38988515D03*
X134296800Y-40258515D03*
X134296800Y-41528515D03*
X134296800Y-42798515D03*
X134296801Y-44068515D03*
X134296800Y-45338515D03*
X134296799Y-46608515D03*
X134296800Y-47878515D03*
X134296800Y-49148515D03*
X134296799Y-50418515D03*
X134296800Y-51688515D03*
D14*
X136061801Y-52938515D03*
X137331800Y-52938515D03*
X138601800Y-52938515D03*
X139871799Y-52938515D03*
X141141801Y-52938514D03*
X142411800Y-52938515D03*
X143681800Y-52938516D03*
X144951799Y-52938515D03*
X146221801Y-52938515D03*
X147491800Y-52938515D03*
X148761800Y-52938515D03*
X150031800Y-52938515D03*
D13*
X151796800Y-51688516D03*
X151796801Y-50418513D03*
X151796800Y-49148515D03*
X151796800Y-47878515D03*
X151796800Y-46608515D03*
X151796800Y-45338515D03*
X151796800Y-44068515D03*
X151796800Y-42798514D03*
X151796800Y-41528515D03*
X151796800Y-40258515D03*
X151796801Y-38988515D03*
X151796800Y-37718516D03*
X151796800Y-36448515D03*
X151796800Y-35178515D03*
D15*
X140146799Y-41498515D03*
X140146800Y-42898516D03*
X140146800Y-44298515D03*
X140146800Y-44298515D03*
X141546800Y-41498515D03*
X141546800Y-41498515D03*
X141546800Y-42898515D03*
X141546800Y-44298515D03*
X142946799Y-42898514D03*
X142946800Y-41498515D03*
X142946800Y-44298515D03*
%TD*%
D16*
%TO.C,R3*%
X145643598Y-58357000D03*
X145643602Y-60007000D03*
%TD*%
%TO.C,R2*%
X142951200Y-58407800D03*
X142951200Y-60057800D03*
%TD*%
%TO.C,R1*%
X140258800Y-58521600D03*
X140258800Y-60171600D03*
%TD*%
D17*
%TO.C,U1*%
X139898000Y-67245600D03*
X139898000Y-69545601D03*
D18*
X146198000Y-69545599D03*
D17*
X139898000Y-71845599D03*
%TD*%
D10*
%TO.C,C5*%
X150147400Y-75895600D03*
X151697400Y-75895600D03*
%TD*%
D19*
%TO.C,J3*%
X139800400Y-77963400D03*
X140600400Y-77963400D03*
D20*
X141800400Y-77963400D03*
X142800400Y-77963400D03*
X143300400Y-77963400D03*
X144300400Y-77963400D03*
D19*
X145500400Y-77963400D03*
X146300400Y-77963400D03*
X146300400Y-77963400D03*
X145500400Y-77963400D03*
D20*
X144800400Y-77963400D03*
X143800400Y-77963400D03*
X142300400Y-77963400D03*
X141300400Y-77963400D03*
D19*
X140600400Y-77963400D03*
X139800400Y-77963400D03*
%TD*%
D12*
%TO.C,D3*%
X145637600Y-63551400D03*
X145637600Y-61976400D03*
%TD*%
D21*
%TO.C,R5*%
X147129000Y-75336400D03*
X145479000Y-75336400D03*
%TD*%
%TO.C,R4*%
X140660800Y-75387600D03*
X139010800Y-75387600D03*
%TD*%
D10*
%TO.C,C3*%
X148979000Y-69515600D03*
X150529000Y-69515600D03*
%TD*%
%TO.C,C4*%
X148978999Y-72025600D03*
X150529001Y-72025600D03*
%TD*%
%TO.C,C2*%
X148729400Y-67157599D03*
X150279400Y-67157601D03*
%TD*%
D21*
%TO.C,R6*%
X151747400Y-77724400D03*
X150097400Y-77724400D03*
%TD*%
D12*
%TO.C,D2*%
X142951200Y-63576300D03*
X142951200Y-62001300D03*
%TD*%
M02*
