%TF.GenerationSoftware,KiCad,Pcbnew,10.0.3*%
%TF.CreationDate,2026-06-14T14:45:46-05:00*%
%TF.ProjectId,Sax32,53617833-322e-46b6-9963-61645f706362,rev?*%
%TF.SameCoordinates,Original*%
%TF.FileFunction,Soldermask,Bot*%
%TF.FilePolarity,Negative*%
%FSLAX46Y46*%
G04 Gerber Fmt 4.6, Leading zero omitted, Abs format (unit mm)*
G04 Created by KiCad (PCBNEW 10.0.3) date 2026-06-14 14:45:46*
%MOMM*%
%LPD*%
G01*
G04 APERTURE LIST*
%ADD10R,1.700000X1.700000*%
%ADD11C,1.700000*%
%ADD12C,0.650000*%
%ADD13O,1.000000X2.100000*%
%ADD14O,1.000000X1.600000*%
G04 APERTURE END LIST*
D10*
%TO.C,J1*%
X130637600Y-35304800D03*
D11*
X130637600Y-37844800D03*
X130637600Y-40384800D03*
X130637600Y-42924800D03*
X130637600Y-45464800D03*
X130637600Y-48004800D03*
X130637600Y-50544800D03*
X130637600Y-53084800D03*
X130637600Y-55624800D03*
X130637600Y-58164800D03*
X130637600Y-60704800D03*
X130637600Y-63244800D03*
X130637600Y-65784800D03*
X130637600Y-68324800D03*
X130637600Y-70864800D03*
X130637600Y-73404800D03*
X130637600Y-75944800D03*
X130637600Y-78484800D03*
X130637600Y-81024800D03*
X130637600Y-83564800D03*
%TD*%
D10*
%TO.C,J2*%
X155357600Y-35304800D03*
D11*
X155357600Y-37844800D03*
X155357600Y-40384800D03*
X155357600Y-42924800D03*
X155357600Y-45464800D03*
X155357600Y-48004800D03*
X155357600Y-50544800D03*
X155357600Y-53084800D03*
X155357600Y-55624800D03*
X155357600Y-58164800D03*
X155357600Y-60704800D03*
X155357600Y-63244800D03*
X155357600Y-65784800D03*
X155357600Y-68324800D03*
X155357600Y-70864800D03*
X155357600Y-73404800D03*
X155357600Y-75944800D03*
X155357600Y-78484800D03*
X155357600Y-81024800D03*
X155357600Y-83564800D03*
%TD*%
D12*
%TO.C,J3*%
X140160400Y-79408400D03*
X145940400Y-79408400D03*
D13*
X138730400Y-78878400D03*
D14*
X138730400Y-83058400D03*
D13*
X147370400Y-78878400D03*
D14*
X147370400Y-83058400D03*
%TD*%
M02*
